REM DIRINDEX 1\2,1\3,1\4,1\5
REM DIRNAME cjc004,folder01,folder02,folder03,folder04
TITLE ""
FILE "1Q_t_1580-1589.mp3" MP3
  TRACK 01 AUDIO
    TITLE "3:cjc004_5646"
    INDEX 01 00:00:00
  TRACK 02 AUDIO
    TITLE "0:"
    INDEX 01 00:01:11
  TRACK 03 AUDIO
    TITLE "4:cjc004_5647"
    INDEX 01 00:01:38
  TRACK 04 AUDIO
    TITLE "0:"
    INDEX 01 00:02:61
  TRACK 05 AUDIO
    TITLE "5:cjc004_5648"
    INDEX 01 00:03:12
  TRACK 06 AUDIO
    TITLE "0:"
    INDEX 01 00:08:01
  TRACK 07 AUDIO
    TITLE "3:cjc004_5649"
    INDEX 01 00:08:58
  TRACK 08 AUDIO
    TITLE "0:"
    INDEX 01 00:09:55
  TRACK 09 AUDIO
    TITLE "4:cjc004_5650"
    INDEX 01 00:10:06
  TRACK 10 AUDIO
    TITLE "0:"
    INDEX 01 00:11:39
  TRACK 11 AUDIO
    TITLE "5:cjc004_5651"
    INDEX 01 00:11:62
  TRACK 12 AUDIO
    TITLE "0:"
    INDEX 01 00:16:14
  TRACK 13 AUDIO
    TITLE "3:cjc004_5652"
    INDEX 01 00:16:73
  TRACK 14 AUDIO
    TITLE "0:"
    INDEX 01 00:18:05
  TRACK 15 AUDIO
    TITLE "4:cjc004_5653"
    INDEX 01 00:18:29
  TRACK 16 AUDIO
    TITLE "0:"
    INDEX 01 00:19:44
  TRACK 17 AUDIO
    TITLE "5:cjc004_5654"
    INDEX 01 00:19:63
  TRACK 18 AUDIO
    TITLE "0:"
    INDEX 01 00:24:27
  TRACK 19 AUDIO
    TITLE "3:cjc004_5655"
    INDEX 01 00:25:11
  TRACK 20 AUDIO
    TITLE "0:"
    INDEX 01 00:26:20
  TRACK 21 AUDIO
    TITLE "4:cjc004_5656"
    INDEX 01 00:26:50
  TRACK 22 AUDIO
    TITLE "0:"
    INDEX 01 00:28:00
  TRACK 23 AUDIO
    TITLE "5:cjc004_5657"
    INDEX 01 00:28:27
  TRACK 24 AUDIO
    TITLE "0:"
    INDEX 01 00:32:37
  TRACK 25 AUDIO
    TITLE "3:cjc004_5658"
    INDEX 01 00:33:19
  TRACK 26 AUDIO
    TITLE "0:"
    INDEX 01 00:34:34
  TRACK 27 AUDIO
    TITLE "4:cjc004_5659"
    INDEX 01 00:34:67
  TRACK 28 AUDIO
    TITLE "0:"
    INDEX 01 00:36:13
  TRACK 29 AUDIO
    TITLE "5:cjc004_5660"
    INDEX 01 00:36:44
  TRACK 30 AUDIO
    TITLE "0:"
    INDEX 01 00:42:33
  TRACK 31 AUDIO
    TITLE "3:cjc004_5661"
    INDEX 01 00:43:13
  TRACK 32 AUDIO
    TITLE "0:"
    INDEX 01 00:44:30
  TRACK 33 AUDIO
    TITLE "4:cjc004_5662"
    INDEX 01 00:44:54
  TRACK 34 AUDIO
    TITLE "0:"
    INDEX 01 00:46:06
  TRACK 35 AUDIO
    TITLE "5:cjc004_5663"
    INDEX 01 00:46:23
  TRACK 36 AUDIO
    TITLE "0:"
    INDEX 01 00:50:62
  TRACK 37 AUDIO
    TITLE "3:cjc004_5664"
    INDEX 01 00:51:42
  TRACK 38 AUDIO
    TITLE "0:"
    INDEX 01 00:52:61
  TRACK 39 AUDIO
    TITLE "4:cjc004_5665"
    INDEX 01 00:53:15
  TRACK 40 AUDIO
    TITLE "0:"
    INDEX 01 00:54:32
  TRACK 41 AUDIO
    TITLE "5:cjc004_5666"
    INDEX 01 00:54:58
  TRACK 42 AUDIO
    TITLE "0:"
    INDEX 01 00:59:28
  TRACK 43 AUDIO
    TITLE "3:cjc004_5667"
    INDEX 01 01:00:06
  TRACK 44 AUDIO
    TITLE "0:"
    INDEX 01 01:01:15
  TRACK 45 AUDIO
    TITLE "4:cjc004_5668"
    INDEX 01 01:01:48
  TRACK 46 AUDIO
    TITLE "0:"
    INDEX 01 01:02:54
  TRACK 47 AUDIO
    TITLE "5:cjc004_5669"
    INDEX 01 01:03:00
  TRACK 48 AUDIO
    TITLE "0:"
    INDEX 01 01:09:26
  TRACK 49 AUDIO
    TITLE "3:cjc004_5670"
    INDEX 01 01:10:00
  TRACK 50 AUDIO
    TITLE "0:"
    INDEX 01 01:11:03
  TRACK 51 AUDIO
    TITLE "4:cjc004_5671"
    INDEX 01 01:11:33
  TRACK 52 AUDIO
    TITLE "0:"
    INDEX 01 01:12:73
  TRACK 53 AUDIO
    TITLE "5:cjc004_5672"
    INDEX 01 01:13:26
  TRACK 54 AUDIO
    TITLE "0:"
    INDEX 01 01:18:58
  TRACK 55 AUDIO
    TITLE "3:cjc004_5673"
    INDEX 01 01:19:36
  TRACK 56 AUDIO
    TITLE "0:"
    INDEX 01 01:20:51
  TRACK 57 AUDIO
    TITLE "4:cjc004_5674"
    INDEX 01 01:21:04
  TRACK 58 AUDIO
    TITLE "0:"
    INDEX 01 01:22:31
  TRACK 59 AUDIO
    TITLE "5:cjc004_5675"
    INDEX 01 01:22:56
  TRACK 60 AUDIO
    TITLE "0:"
    INDEX 01 01:26:25
